<?xml version="1.0" standalone="no"?>
<!DOCTYPE svg PUBLIC "-//W3C//DTD SVG 20010904//EN"
 "http://www.w3.org/TR/2001/REC-SVG-20010904/DTD/svg10.dtd">
<svg version="1.0" xmlns="http://www.w3.org/2000/svg"
 width="260.000000pt" height="260.000000pt" viewBox="0 0 260.000000 260.000000"
 preserveAspectRatio="xMidYMid meet">
<metadata>
Created by potrace 1.14, written by Peter Selinger 2001-2017
</metadata>
<g transform="translate(0.000000,260.000000) scale(0.100000,-0.100000)"
fill="#000000" stroke="none">
<path d="M1725 2139 c-4 -5 -12 -8 -18 -6 -7 2 -17 -3 -24 -12 -7 -9 -13 -11
-13 -5 0 7 -23 3 -64 -12 -35 -12 -67 -20 -70 -17 -3 4 -6 1 -6 -5 0 -7 -3
-11 -7 -10 -12 3 -77 -13 -88 -22 -5 -5 -12 -8 -15 -8 -24 0 -80 -16 -80 -24
0 -5 -5 -6 -10 -3 -6 4 -17 1 -25 -5 -8 -7 -15 -9 -15 -5 0 4 -6 3 -12 -2 -7
-6 -21 -9 -30 -8 -10 2 -18 -1 -18 -7 0 -6 -7 -8 -15 -5 -8 4 -17 2 -19 -2 -3
-5 -20 -12 -38 -16 -18 -4 -39 -9 -45 -11 -7 -2 -19 -5 -25 -7 -7 -2 -22 -8
-33 -14 -11 -6 -28 -9 -37 -8 -10 2 -18 -1 -18 -7 0 -6 -7 -8 -15 -4 -8 3 -15
1 -15 -4 0 -6 -3 -9 -7 -8 -5 1 -39 -8 -78 -20 -64 -19 -74 -27 -115 -79 -25
-32 -47 -62 -49 -67 -2 -5 -15 -20 -28 -32 -14 -13 -22 -28 -18 -34 3 -6 2 -9
-3 -8 -5 2 -45 -42 -88 -97 -97 -123 -106 -134 -121 -150 -7 -8 -13 -16 -13
-19 0 -5 -28 -39 -73 -87 -9 -10 -15 -19 -12 -19 3 0 -5 -11 -17 -25 -23 -27
-31 -52 -18 -60 4 -2 6 -16 5 -30 -2 -14 2 -25 8 -25 5 0 8 -2 5 -5 -5 -5 -1
-31 15 -110 3 -11 8 -40 13 -65 4 -25 8 -47 9 -50 0 -3 5 -27 10 -55 5 -27 9
-52 10 -55 6 -23 15 -72 20 -104 3 -22 7 -41 8 -41 4 -3 193 -140 237 -172 25
-18 50 -37 56 -43 7 -5 15 -6 18 -3 3 4 6 1 6 -5 0 -7 5 -12 11 -12 5 0 7 6 3
13 -5 7 0 6 11 -3 11 -9 16 -10 11 -2 -8 13 6 17 18 5 10 -11 37 -12 30 -2 -3
5 0 9 5 9 6 0 11 -6 11 -12 0 -10 3 -9 9 1 7 11 9 11 14 0 4 -10 6 -10 6 -1 1
6 6 12 12 12 5 0 7 -6 3 -12 -6 -10 -4 -10 7 0 15 14 33 17 25 4 -3 -5 1 -9 9
-9 8 0 12 4 9 9 -8 13 61 9 75 -5 11 -9 13 -9 7 1 -9 16 6 16 23 0 11 -10 13
-10 7 0 -6 9 45 12 236 13 134 0 321 2 416 4 l173 3 49 33 c27 18 46 37 44 41
-3 4 -1 8 3 8 5 0 50 40 101 89 51 48 92 86 92 84 0 -2 18 15 40 39 33 36 40
50 41 88 3 119 8 217 12 235 2 11 0 22 -4 25 -5 3 -2 18 6 33 8 15 10 25 6 22
-12 -7 -8 58 4 67 6 5 5 8 -3 8 -9 0 -10 5 -2 19 7 14 7 22 -1 27 -8 5 -8 8 0
13 7 5 4 14 -9 29 -12 12 -18 22 -15 22 4 0 -3 12 -14 26 -12 15 -21 32 -21
39 0 7 -7 16 -16 19 -8 3 -12 10 -9 16 3 5 2 10 -4 10 -10 0 -27 39 -23 53 1
5 -2 5 -8 2 -7 -4 -14 2 -17 14 -3 12 -10 21 -15 21 -5 0 -7 4 -3 9 3 5 -2 16
-10 24 -8 9 -15 18 -15 21 0 3 -16 30 -35 60 -19 30 -35 60 -35 65 0 6 -8 14
-17 20 -10 5 -15 13 -11 17 4 4 0 14 -10 23 -17 15 -32 43 -31 57 0 4 -3 10
-8 13 -18 12 -53 69 -53 86 0 9 -4 14 -9 10 -5 -3 -15 11 -22 30 -7 19 -16 35
-20 35 -4 0 -11 9 -14 20 -3 11 -13 27 -22 35 -8 9 -16 21 -17 28 -2 18 -29
52 -43 54 -7 2 -15 -2 -18 -8z"/>
</g>
</svg>
